HIERARCHY
ROOT SpineBase
{
  OFFSET 0.000000 0.000000 0.000000
  CHANNELS 6 Xposition Yposition Zposition Zrotation Xrotation Yrotation
  JOINT SpineMid
  {
    OFFSET 0.000000 31.220258 0.000000
    CHANNELS 3 Zrotation Xrotation Yrotation
    JOINT SpineShoulder
    {
      OFFSET 0.087970 23.175900 -0.819869
      CHANNELS 3 Zrotation Xrotation Yrotation
      JOINT Neck
      {
        OFFSET 0.064621 7.662871 -0.603717
        CHANNELS 3 Zrotation Xrotation Yrotation
        JOINT Head
        {
          OFFSET -5.538755 12.606335 1.531332
          CHANNELS 3 Zrotation Xrotation Yrotation
          End Site
          {
            OFFSET 0 0 0
          }
        }
      }
      JOINT ShoulderLeft
      {
        OFFSET -16.298240 -5.203364 9.540196
        CHANNELS 3 Zrotation Xrotation Yrotation
        JOINT ElbowLeft
        {
          OFFSET -1.161846 -24.741437 -0.245177
          CHANNELS 3 Zrotation Xrotation Yrotation
          JOINT WristLeft
          {
            OFFSET 0.163322 -24.514980 -3.374692
            CHANNELS 3 Zrotation Xrotation Yrotation
            JOINT HandLeft
            {
              OFFSET -0.153603 -7.440975 -2.130128
              CHANNELS 3 Zrotation Xrotation Yrotation
              JOINT HandTipLeft
              {
                OFFSET 0.852644 -7.314283 -0.296912
                CHANNELS 3 Zrotation Xrotation Yrotation
                End Site
                {
                  OFFSET 0 0 0
                }
              }
              JOINT ThumbLeft
              {
                OFFSET 3.926481 3.382189 -1.128290
                CHANNELS 3 Zrotation Xrotation Yrotation
                End Site
                {
                  OFFSET 0 0 0
                }
              }
            }
          }
        }
      }
      JOINT ShoulderRight
      {
        OFFSET 13.714988 -2.964905 -8.479928
        CHANNELS 3 Zrotation Xrotation Yrotation
        JOINT ElbowRight
        {
          OFFSET 7.916937 -23.602762 -2.397305
          CHANNELS 3 Zrotation Xrotation Yrotation
          JOINT WristRight
          {
            OFFSET -5.252199 -18.648705 -7.352955
            CHANNELS 3 Zrotation Xrotation Yrotation
            JOINT HandRight
            {
              OFFSET -5.438336 -6.659452 -0.881053
              CHANNELS 3 Zrotation Xrotation Yrotation
              JOINT HandTipRight
              {
                OFFSET -4.234436 -8.731105 -2.072246
                CHANNELS 3 Zrotation Xrotation Yrotation
                End Site
                {
                  OFFSET 0 0 0
                }
              }
              JOINT ThumbRight
              {
                OFFSET 4.568976 1.555467 -0.517436
                CHANNELS 3 Zrotation Xrotation Yrotation
                End Site
                {
                  OFFSET 0 0 0
                }
              }
            }
          }
        }
      }
    }
  }
  JOINT HipLeft
  {
    OFFSET -6.661117 0.069581 -0.647430
    CHANNELS 3 Zrotation Xrotation Yrotation
    JOINT KneeLeft
    {
      OFFSET 5.357716 -35.565727 5.193793
      CHANNELS 3 Zrotation Xrotation Yrotation
      JOINT AnkleLeft
      {
        OFFSET 10.059845 -37.694231 10.860955
        CHANNELS 3 Zrotation Xrotation Yrotation
        JOINT FootLeft
        {
          OFFSET -1.937146 -6.853757 -5.134753
          CHANNELS 3 Zrotation Xrotation Yrotation
          End Site
          {
            OFFSET 0 0 0
          }
        }
      }
    }
  }
  JOINT HipRight
  {
    OFFSET 7.344166 1.754320 -6.436191
    CHANNELS 3 Zrotation Xrotation Yrotation
    JOINT KneeRight
    {
      OFFSET 9.281772 -34.113051 -0.854054
      CHANNELS 3 Zrotation Xrotation Yrotation
      JOINT AnkleRight
      {
        OFFSET 8.308096 -37.754913 9.777499
        CHANNELS 3 Zrotation Xrotation Yrotation
        JOINT FootRight
        {
          OFFSET -0.524660 -7.089942 -5.171944
          CHANNELS 3 Zrotation Xrotation Yrotation
          End Site
          {
            OFFSET 0 0 0
          }
        }
      }
    }
  }
}
MOTION
Frames: 16
Frame Time: 0.033333
-32.955938 81.344260 331.485684 -0.000000 0.000000 22.456627 -0.000000 0.000000 -22.456627 -0.000000 0.000000 0.000000 -0.000000 0.000000 0.000000 0.000000 0.000000 0.000000 -0.000000 0.000000 0.000000 -0.000000 0.000000 0.000000 -0.000000 0.000000 0.000000 -0.000000 0.000000 0.000000 0.000000 0.000000 0.000000 0.000000 0.000000 0.000000 -0.000000 0.000000 0.000000 -0.000000 0.000000 0.000000 -0.000000 0.000000 0.000000 -0.000000 0.000000 0.000000 0.000000 0.000000 0.000000 0.000000 0.000000 0.000000 -0.000000 0.000000 -22.456627 -0.000000 0.000000 0.000000 -0.000000 0.000000 0.000000 0.000000 0.000000 0.000000 -0.000000 0.000000 -22.456627 -0.000000 0.000000 0.000000 -0.000000 0.000000 0.000000 0.000000 0.000000 0.000000
-32.978096 81.362262 331.433714 -0.031028 -0.089915 22.522576 0.063103 0.071172 -22.522639 -0.000000 0.000000 0.000000 -0.000000 0.000000 0.000000 0.000000 0.000000 0.000000 -0.000000 0.000000 0.000000 0.494263 1.403236 -0.064633 0.835092 -2.626974 -0.256119 -1.333274 1.216580 0.369522 0.000000 0.000000 0.000000 0.000000 0.000000 0.000000 -0.000000 0.000000 0.000000 1.134463 -0.070885 -0.427949 1.576841 0.158125 -0.004808 -2.711797 -0.095779 0.426590 0.000000 0.000000 0.000000 0.000000 0.000000 0.000000 0.063103 0.071172 -22.522639 -0.000000 0.000000 0.000000 -0.000000 0.000000 0.000000 0.000000 0.000000 0.000000 0.063103 0.071172 -22.522639 -0.000000 0.000000 0.000000 -0.000000 0.000000 0.000000 0.000000 0.000000 0.000000
-33.005822 81.375952 331.376649 -0.070157 -0.163544 22.620311 0.127663 0.123979 -22.620549 -0.000000 0.000000 0.000000 -0.000000 0.000000 0.000000 0.000000 0.000000 0.000000 0.001872 0.846117 -0.039763 0.917437 1.657318 -0.076471 1.479418 -5.081444 -0.385164 -1.382022 1.839642 0.521354 0.000000 0.000000 0.000000 0.000000 0.000000 0.000000 -1.220361 0.679151 0.360063 3.649345 -1.001483 -1.191230 3.236319 0.461744 -0.027708 -5.675243 -0.198928 0.869052 0.000000 0.000000 0.000000 0.000000 0.000000 0.000000 0.127663 0.123979 -22.620549 -0.000000 0.000000 0.000000 0.372474 0.819636 -0.511111 0.000000 0.000000 0.000000 0.127663 0.123979 -22.620549 -0.000000 0.000000 0.000000 0.777948 0.384542 -0.597403 0.000000 0.000000 0.000000
-33.039118 81.385329 331.314490 -0.117388 -0.220855 22.749581 0.193662 0.158278 -22.750075 -0.000000 0.000000 0.000000 -0.000000 0.000000 0.000000 0.000000 0.000000 0.000000 0.003807 1.134681 -0.053356 1.272945 2.167361 -0.111653 1.948486 -7.375386 -0.421026 -2.166957 3.030754 0.723042 0.000000 0.000000 0.000000 0.000000 0.000000 0.000000 -1.787856 1.010891 0.538798 5.639971 -1.757603 -1.757109 4.995820 0.910125 -0.097003 -7.111175 -0.699891 1.127575 0.000000 0.000000 0.000000 0.000000 0.000000 0.000000 0.193662 0.158278 -22.750075 -0.000000 0.000000 0.000000 0.532897 1.051005 -0.697311 0.000000 0.000000 0.000000 0.193662 0.158278 -22.750075 -0.000000 0.000000 0.000000 1.072011 0.507544 -0.822235 0.000000 0.000000 0.000000
-33.077982 81.390392 331.247236 -0.172722 -0.261820 22.910094 0.261021 0.173928 -22.910885 -0.000000 0.000000 0.000000 -0.000000 0.000000 0.000000 0.000000 0.000000 0.000000 0.006318 1.333843 -0.062769 1.560279 2.467721 -0.142724 2.250314 -9.525621 -0.389453 -3.027310 4.424166 0.908389 0.000000 0.000000 0.000000 0.000000 0.000000 0.000000 -2.326796 1.337584 0.716226 7.680263 -2.681502 -2.270156 6.868699 1.486124 -0.240550 -8.983378 -1.210459 1.470320 0.000000 0.000000 0.000000 0.000000 0.000000 0.000000 0.261021 0.173928 -22.910885 -0.000000 0.000000 0.000000 0.675578 1.165474 -0.837432 0.000000 0.000000 0.000000 0.261021 0.173928 -22.910885 -0.000000 0.000000 0.000000 1.310338 0.589652 -1.003337 0.000000 0.000000 0.000000
-33.122415 81.391143 331.174887 -0.236153 -0.286420 23.101519 0.329598 0.170792 -23.102600 -0.000000 0.000000 0.000000 -0.000000 0.000000 0.000000 0.000000 0.000000 0.000000 0.009361 1.443746 -0.068004 1.779909 2.560086 -0.168687 2.386625 -11.552421 -0.309560 -3.960609 6.039433 1.097354 0.000000 0.000000 0.000000 0.000000 0.000000 0.000000 -2.837141 1.659382 0.892035 9.712402 -3.752823 -2.707475 8.855935 2.155689 -0.479064 -10.460548 -1.856606 1.794630 0.000000 0.000000 0.000000 0.000000 0.000000 0.000000 0.329598 0.170792 -23.102600 -0.000000 0.000000 0.000000 0.800365 1.163751 -0.931427 0.000000 0.000000 0.000000 0.329598 0.170792 -23.102600 -0.000000 0.000000 0.000000 1.496686 0.633150 -1.143442 0.000000 0.000000 0.000000
-33.169949 81.389545 331.088548 -0.302889 -0.287999 23.374848 0.392294 0.144189 -23.376103 -0.000000 0.000000 0.000000 -0.000000 0.000000 0.000000 0.000000 0.000000 0.000000 0.009037 1.473803 -0.069410 2.007020 2.532367 -0.199544 2.445262 -14.869200 -0.123064 -5.819646 9.163173 1.553206 0.000000 0.000000 0.000000 0.000000 0.000000 0.000000 -3.480185 2.098543 1.130710 11.686884 -5.374651 -2.927123 11.761423 3.565918 -1.680350 -11.361608 -4.124993 3.029003 0.000000 0.000000 0.000000 0.000000 0.000000 0.000000 0.392294 0.144189 -23.376103 -0.000000 0.000000 0.000000 1.145863 0.889695 -1.115490 0.000000 0.000000 0.000000 0.392294 0.144189 -23.376103 -0.000000 0.000000 0.000000 1.666055 0.695478 -1.272694 0.000000 0.000000 0.000000
-33.232269 81.383281 331.001954 -0.389669 -0.272179 23.633074 0.466098 0.093137 -23.634378 -0.000000 0.000000 0.000000 -0.000000 0.000000 0.000000 0.000000 0.000000 0.000000 0.003866 1.367901 -0.064316 2.122411 2.155401 -0.218868 2.040055 -16.574721 0.032661 -7.256340 10.892752 1.893995 0.000000 0.000000 0.000000 0.000000 0.000000 0.000000 -4.050629 2.488205 1.347277 13.851272 -6.820811 -3.217498 15.191383 4.384398 -2.539433 -11.723008 -5.839037 3.878718 0.000000 0.000000 0.000000 0.000000 0.000000 0.000000 0.466098 0.093137 -23.634378 -0.000000 0.000000 0.000000 1.592148 0.513629 -1.345909 0.000000 0.000000 0.000000 0.466098 0.093137 -23.634378 -0.000000 0.000000 0.000000 1.781845 0.764865 -1.363281 0.000000 0.000000 0.000000
-33.295444 81.361396 330.933906 -0.474524 -0.249866 23.895464 0.535063 0.036227 -23.896668 -0.000000 0.000000 0.000000 -0.000000 0.000000 0.000000 0.000000 0.000000 0.000000 0.016915 1.201986 -0.056786 2.052799 1.258877 -0.212552 1.662583 -17.411470 0.136755 -7.936672 13.018145 2.187939 0.000000 0.000000 0.000000 0.000000 0.000000 0.000000 -4.426180 2.755311 1.496318 15.612077 -7.937688 -3.433554 18.155076 4.378087 -2.513131 -13.068239 -6.143674 3.935586 0.000000 0.000000 0.000000 0.000000 0.000000 0.000000 0.535063 0.036227 -23.896668 -0.000000 0.000000 0.000000 1.515538 0.358186 -1.243152 0.000000 0.000000 0.000000 0.535063 0.036227 -23.896668 -0.000000 0.000000 0.000000 1.695130 0.809086 -1.303149 0.000000 0.000000 0.000000
-33.354859 81.334405 330.860506 -0.567232 -0.230857 24.160853 0.612030 -0.021541 -24.161881 -0.000000 0.000000 0.000000 -0.768153 -0.542998 -0.149429 0.000000 0.000000 0.000000 0.042734 0.977258 -0.046677 1.855591 0.220271 -0.194543 0.856874 -17.336071 0.250816 -8.479976 14.279171 2.346327 0.000000 0.000000 0.000000 0.000000 0.000000 0.000000 -4.557526 2.820014 1.538070 16.789571 -8.560681 -3.577487 19.190515 3.863879 -1.477302 -12.826985 -5.481123 3.059549 0.000000 0.000000 0.000000 0.000000 0.000000 0.000000 0.612030 -0.021541 -24.161881 -0.000000 0.000000 0.000000 1.106943 -0.076735 -0.809507 0.000000 0.000000 0.000000 1.160543 -0.665079 -24.276193 -0.764603 0.361085 0.120008 1.682989 0.465291 -1.266629 0.000000 0.000000 0.000000
-33.406672 81.306201 330.796829 -0.650482 -0.229812 24.375001 0.687343 -0.059139 -24.375951 -0.000000 0.000000 0.000000 -0.926393 -0.567333 -0.141909 0.000000 0.000000 0.000000 -0.000000 0.000000 0.000000 1.722261 -0.162551 -0.235763 -0.416115 -17.060569 0.448676 -7.104329 13.776570 1.584997 0.000000 0.000000 0.000000 0.000000 0.000000 0.000000 -4.574689 2.910724 1.574653 17.598844 -9.183854 -3.630459 18.459499 3.270722 0.087479 -12.453823 -3.398329 1.153090 0.000000 0.000000 0.000000 0.000000 0.000000 0.000000 0.687343 -0.059139 -24.375951 -0.000000 0.000000 0.000000 0.880022 -0.538714 -0.505790 0.000000 0.000000 0.000000 1.391332 -0.774690 -24.492310 -0.937300 0.359250 0.124420 1.756297 -0.427309 -1.247867 0.000000 0.000000 0.000000
-33.441567 81.269160 330.752147 -0.716064 -0.251721 24.554512 0.755910 -0.068621 -24.555633 -0.000000 0.000000 0.000000 -1.050746 -0.593985 -0.139433 0.000000 0.000000 0.000000 -0.000000 0.000000 0.000000 1.633665 -1.378726 -0.214766 -1.218931 -16.582600 0.602096 -5.840160 13.926899 1.039722 0.000000 0.000000 0.000000 0.000000 0.000000 0.000000 -4.432239 3.002867 1.590406 17.979867 -9.658916 -3.635361 16.187066 2.952810 1.451153 -10.997070 -1.822709 -0.397674 0.000000 0.000000 0.000000 0.000000 0.000000 0.000000 0.755910 -0.068621 -24.555633 -0.000000 0.000000 0.000000 0.701980 -0.914270 -0.263940 0.000000 0.000000 0.000000 1.581637 -0.842875 -24.673878 -1.073563 0.358775 0.128175 1.828579 -1.444314 -1.216660 0.000000 0.000000 0.000000
-33.476791 81.240310 330.742244 -0.783891 -0.295951 24.628456 0.835908 -0.057661 -24.630060 -0.000000 0.000000 0.000000 -1.129309 -0.696518 -0.176602 0.000000 0.000000 0.000000 -0.000000 0.000000 0.000000 1.567592 -2.340147 -0.199923 -2.106448 -15.778433 0.778193 -4.697799 13.541080 0.480069 0.000000 0.000000 0.000000 0.000000 0.000000 0.000000 -4.265154 3.091858 1.601413 18.306847 -10.048568 -3.657431 16.170029 3.035190 1.671211 -9.922671 -2.315425 -0.455921 0.000000 0.000000 0.000000 0.000000 0.000000 0.000000 0.835908 -0.057661 -24.630060 -0.000000 0.000000 0.000000 0.638428 -0.888290 -0.223940 0.000000 0.000000 0.000000 1.782035 -0.849431 -24.740606 -1.190654 0.323022 0.121392 1.881039 -2.537465 -1.162991 0.000000 0.000000 0.000000
-33.469116 81.198722 330.730332 -0.797401 -0.335378 24.665829 0.864601 -0.028019 -24.667952 -0.000000 0.000000 0.000000 -1.190972 -0.778700 -0.206669 0.000000 0.000000 0.000000 -0.000000 0.000000 0.000000 1.581962 -2.925745 -0.197554 -2.602551 -15.770932 0.899457 -3.427201 14.368334 0.084767 0.000000 0.000000 0.000000 0.000000 0.000000 0.000000 -4.078725 3.175868 1.607670 18.537135 -10.274874 -3.716073 15.201286 3.376111 1.634786 -9.155397 -2.856997 -0.149610 0.000000 0.000000 0.000000 0.000000 0.000000 0.000000 0.864601 -0.028019 -24.667952 -0.000000 0.000000 0.000000 -0.000000 0.000000 0.000000 0.000000 0.000000 0.000000 1.840617 -0.858922 -24.785564 -1.234454 0.345077 0.128884 1.883918 -3.143312 -1.113647 0.000000 0.000000 0.000000
-33.428722 81.154214 330.691731 -0.780200 -0.351028 24.664607 0.855501 -0.006601 -24.666947 -0.739279 -0.362701 -0.057508 -0.454527 -0.499499 -0.183466 0.000000 0.000000 0.000000 0.738929 0.363412 0.052825 1.614044 -3.078135 -0.200065 -2.458738 -15.235091 0.871997 -2.608941 14.569828 -0.085095 0.000000 0.000000 0.000000 0.000000 0.000000 0.000000 -3.178059 3.663456 1.710621 18.655536 -10.537101 -3.741052 12.983972 4.178896 1.209727 -8.115042 -4.088813 0.893770 0.000000 0.000000 0.000000 0.000000 0.000000 0.000000 0.942468 -0.882427 -24.715709 -0.445226 0.759223 0.052386 1.120384 -0.459664 -0.709072 0.000000 0.000000 0.000000 1.763926 -0.875166 -24.800943 -1.188997 0.407292 0.145212 2.050841 -3.762258 -1.180123 0.000000 0.000000 0.000000
-33.413725 81.142635 330.647637 -0.805137 -0.370368 24.691926 0.069835 -0.010996 -24.719346 -0.061291 -0.008526 -0.034982 -0.315707 -0.465138 -0.171740 0.000000 0.000000 0.000000 0.798013 0.360516 0.057339 1.636041 -3.146027 -0.202008 -2.178378 -14.628895 0.809944 -0.430687 12.841760 -0.899110 0.000000 0.000000 0.000000 0.000000 0.000000 0.000000 -3.022212 3.793464 1.750393 18.555579 -10.581699 -3.778216 9.933328 4.969518 0.838133 -6.451102 -4.773675 1.536113 0.000000 0.000000 0.000000 0.000000 0.000000 0.000000 0.935431 -0.966948 -24.757745 -0.449713 0.857588 0.066997 1.611826 -0.653438 -1.022163 0.000000 0.000000 0.000000 1.722058 -0.934452 -24.852119 -1.151247 0.496659 0.169394 2.349260 -3.928933 -1.379055 0.000000 0.000000 0.000000
